<svg width="34" height="34" viewBox="0 0 34 34" fill="none" xmlns="http://www.w3.org/2000/svg">
<path d="M30.9824 16.2915C30.0758 14.719 25.0891 6.82819 16.6174 7.08319C8.78327 7.28153 4.24993 14.1665 3.01743 16.2915C2.8931 16.5069 2.82764 16.7512 2.82764 16.9999C2.82764 17.2485 2.8931 17.4928 3.01743 17.7082C3.90993 19.2524 8.6841 26.9165 17.0283 26.9165H17.3824C25.2166 26.7182 29.7641 19.8332 30.9824 17.7082C31.1068 17.4928 31.1722 17.2485 31.1722 16.9999C31.1722 16.7512 31.1068 16.5069 30.9824 16.2915ZM17.3116 24.0832C11.2058 24.2249 7.22493 18.9974 5.97827 16.9999C7.39493 14.719 11.0924 10.0582 16.7591 9.91653C22.8366 9.76069 26.8316 15.0024 28.0924 16.9999C26.6333 19.2807 22.9783 23.9415 17.3116 24.0832Z" fill="black"/>
<path d="M17 12.0415C16.0193 12.0415 15.0607 12.3323 14.2453 12.8771C13.4299 13.422 12.7943 14.1963 12.4191 15.1024C12.0438 16.0084 11.9456 17.0053 12.1369 17.9672C12.3282 18.929 12.8005 19.8125 13.4939 20.5059C14.1873 21.1993 15.0708 21.6716 16.0326 21.8629C16.9945 22.0542 17.9914 21.956 18.8974 21.5807C19.8035 21.2055 20.5778 20.5699 21.1227 19.7545C21.6675 18.9391 21.9583 17.9805 21.9583 16.9998C21.9583 15.6848 21.4359 14.4236 20.506 13.4938C19.5762 12.5639 18.315 12.0415 17 12.0415ZM17 19.1248C16.5797 19.1248 16.1688 19.0002 15.8194 18.7667C15.4699 18.5332 15.1976 18.2013 15.0367 17.813C14.8759 17.4247 14.8338 16.9975 14.9158 16.5853C14.9978 16.1731 15.2002 15.7944 15.4974 15.4972C15.7945 15.2 16.1732 14.9977 16.5854 14.9157C16.9976 14.8337 17.4249 14.8758 17.8132 15.0366C18.2015 15.1974 18.5333 15.4698 18.7668 15.8193C19.0003 16.1687 19.125 16.5796 19.125 16.9998C19.125 17.5634 18.9011 18.1039 18.5026 18.5024C18.104 18.901 17.5635 19.1248 17 19.1248Z" fill="black"/>
</svg>
