<svg width="437" height="252" viewBox="0 0 437 252" fill="none" xmlns="http://www.w3.org/2000/svg">
<path d="M3.07972 99.4064L59.3701 19.3338H16.2541L18.8205 6.33053H103.342L101.802 20.8736L46.0246 101.973H91.0227L88.6274 114.976H0L3.07972 99.4064Z" fill="black"/>
<path d="M131.786 80.5859C131.33 83.0953 130.988 85.4906 130.76 87.7719C130.646 90.0531 130.588 92.1063 130.588 93.9313C130.588 94.9579 130.646 96.0985 130.76 97.3532C130.874 98.6079 131.102 99.8056 131.444 100.946C131.9 101.973 132.471 102.885 133.155 103.684C133.953 104.368 135.037 104.71 136.406 104.71C137.432 104.71 138.573 104.368 139.828 103.684C141.196 102.999 142.508 102.03 143.763 100.775C145.132 99.5204 146.386 97.9806 147.527 96.1555C148.782 94.3305 149.751 92.2774 150.436 89.9961H178.495L174.047 108.303C171.765 109.786 169.142 111.041 166.176 112.067C163.211 113.094 160.074 113.949 156.766 114.634C153.458 115.204 150.093 115.603 146.671 115.832C143.25 116.174 139.999 116.345 136.919 116.345C131.216 116.345 125.912 115.832 121.007 114.805C116.102 113.778 111.825 112.01 108.175 109.501C104.525 106.992 101.616 103.684 99.4491 99.5775C97.396 95.3571 96.3694 90.1672 96.3694 84.0078C96.3694 78.4187 97.2249 72.9436 98.9359 67.5826C100.761 62.2217 103.727 57.488 107.833 53.3817C112.053 49.1614 117.642 45.7965 124.6 43.2871C131.672 40.7777 140.455 39.523 150.949 39.523C162.355 39.523 170.91 41.291 176.613 44.827C182.43 48.3629 185.339 53.895 185.339 61.4232C185.339 64.5029 184.883 67.8678 183.97 71.5178C183.058 75.0538 181.689 78.0765 179.864 80.5859H131.786ZM154.542 60.2255C154.542 56.6896 153.971 54.2942 152.831 53.0395C151.69 51.7848 150.321 51.1575 148.725 51.1575C146.9 51.1575 145.189 51.7848 143.592 53.0395C142.109 54.1802 140.74 55.7771 139.485 57.8302C138.231 59.7693 137.09 62.0506 136.064 64.674C135.037 67.1834 134.181 69.8639 133.497 72.7155H153.002C153.23 71.3467 153.458 69.9209 153.686 68.4381C153.914 67.1834 154.086 65.8147 154.2 64.3318C154.428 62.849 154.542 61.4802 154.542 60.2255Z" fill="black"/>
<path d="M200.374 47.7356C206.191 44.884 212.123 42.8309 218.168 41.5762C224.327 40.2074 231.171 39.523 238.699 39.523C245.999 39.523 252.045 40.0933 256.835 41.234C261.626 42.3746 265.447 44.0285 268.299 46.1957C271.15 48.3629 273.146 50.9294 274.287 53.895C275.428 56.8607 275.998 60.2255 275.998 63.9896C275.998 66.1568 275.827 68.4951 275.485 71.0045C275.257 73.5139 274.972 75.6241 274.629 77.3351L266.588 114.976H239.042L235.962 104.026H234.935C231.285 108.018 227.008 111.098 222.103 113.265C217.312 115.318 212.522 116.345 207.731 116.345C204.994 116.345 202.313 115.946 199.69 115.147C197.066 114.349 194.728 113.151 192.675 111.554C190.622 109.843 188.968 107.733 187.713 105.224C186.458 102.6 185.831 99.4634 185.831 95.8134C185.831 89.8821 187.428 85.2055 190.622 81.7835C193.929 78.2476 198.207 75.6241 203.454 73.9132C208.815 72.0881 214.803 70.9475 221.419 70.4913C228.148 70.035 234.878 69.8069 241.608 69.8069C241.836 68.6662 242.121 67.0694 242.463 65.0162C242.806 62.849 242.977 60.9669 242.977 59.3701C242.977 57.3169 242.406 55.4349 241.266 53.7239C240.239 51.8989 238.015 50.9864 234.593 50.9864C230.601 50.9864 227.635 52.1841 225.696 54.5794C223.871 56.8607 222.673 59.6552 222.103 62.9631H197.123L200.374 47.7356ZM239.726 77.8484H236.646C233.338 77.8484 230.487 78.3046 228.091 79.2171C225.81 80.0156 223.928 81.0992 222.445 82.4679C221.077 83.8367 220.05 85.3765 219.366 87.0875C218.681 88.7985 218.339 90.5094 218.339 92.2204C218.339 94.9579 219.023 97.011 220.392 98.3798C221.875 99.7486 223.586 100.433 225.525 100.433C227.92 100.433 230.259 99.5775 232.54 97.8665C234.935 96.1556 236.418 93.8743 236.988 91.0227L239.726 77.8484Z" fill="black"/>
<path d="M315.651 114.976H280.747L305.043 0H340.117L315.651 114.976Z" fill="black"/>
<path d="M147.911 201.014H192.225L182.302 250.631H162.112L158.861 239.681H158.177C155.211 243.103 151.675 246.012 147.569 248.407C143.577 250.802 138.33 252 131.828 252C126.81 252 121.962 251.202 117.285 249.605C112.723 247.894 108.616 245.27 104.966 241.734C101.43 238.084 98.5789 233.351 96.4117 227.533C94.2445 221.716 93.1609 214.701 93.1609 206.489C93.1609 197.592 94.5297 189.151 97.2672 181.167C100.005 173.182 104.111 166.167 109.586 160.122C115.061 153.962 121.905 149.115 130.117 145.579C138.33 142.043 147.911 140.275 158.861 140.275C167.302 140.275 174.659 141.244 180.933 143.183C187.206 145.123 193.138 147.29 198.727 149.685L192.225 182.878H163.31C163.424 181.623 163.595 180.14 163.823 178.429C164.051 176.718 164.222 174.95 164.337 173.125C164.451 171.186 164.565 169.304 164.679 167.479C164.793 165.654 164.85 164.057 164.85 162.688C164.85 161.776 164.793 160.749 164.679 159.609C164.565 158.354 164.279 157.156 163.823 156.016C163.367 154.875 162.683 153.962 161.77 153.278C160.858 152.48 159.546 152.08 157.835 152.08C154.869 152.08 152.132 153.335 149.622 155.845C147.227 158.24 145.06 161.491 143.121 165.597C141.182 169.589 139.471 174.152 137.988 179.285C136.619 184.417 135.421 189.664 134.395 195.025C133.482 200.272 132.741 205.462 132.171 210.595C131.714 215.614 131.486 220.005 131.486 223.769C131.486 224.91 131.543 226.336 131.657 228.047C131.771 229.758 132.114 231.469 132.684 233.18C133.368 234.776 134.281 236.202 135.421 237.457C136.676 238.598 138.444 239.168 140.725 239.168C144.489 239.168 148.14 237.115 151.675 233.008C155.211 228.902 157.892 222.058 159.717 212.477H145.345L147.911 201.014Z" fill="#7065F0"/>
<path d="M210.806 177.06H238.695L241.261 189.892H242.459C245.082 185.786 248.447 182.307 252.554 179.456C256.66 176.604 262.078 175.178 268.808 175.178C269.264 175.178 269.948 175.235 270.861 175.349C271.887 175.349 272.971 175.52 274.112 175.863C275.366 176.091 276.621 176.49 277.876 177.06C279.244 177.517 280.556 178.201 281.811 179.113L274.283 214.359H255.633C255.405 207.287 254.778 202.382 253.751 199.645C252.725 196.793 251.071 195.368 248.789 195.368C247.649 195.368 246.394 195.653 245.025 196.223C243.771 196.679 242.459 197.763 241.09 199.474L230.14 250.631H195.237L210.806 177.06Z" fill="#7065F0"/>
<path d="M312.676 250.631H277.944L293.513 177.06H328.588L312.676 250.631ZM333.036 154.647C333.036 157.27 332.466 159.552 331.326 161.491C330.299 163.43 328.873 165.084 327.048 166.452C325.337 167.821 323.341 168.848 321.06 169.532C318.779 170.217 316.44 170.559 314.045 170.559C309.482 170.559 305.661 169.475 302.582 167.308C299.502 165.141 297.962 161.719 297.962 157.042C297.962 154.533 298.475 152.309 299.502 150.369C300.528 148.316 301.897 146.662 303.608 145.408C305.433 144.039 307.486 143.012 309.768 142.328C312.163 141.644 314.615 141.301 317.125 141.301C321.573 141.301 325.337 142.385 328.417 144.552C331.497 146.719 333.036 150.084 333.036 154.647Z" fill="#7065F0"/>
<path d="M400.956 135.655H436.03L411.564 250.631H383.846L380.767 239.681H379.569C378.885 240.708 377.801 241.962 376.318 243.445C374.949 244.814 373.182 246.183 371.014 247.552C368.847 248.806 366.281 249.833 363.315 250.631C360.349 251.544 356.927 252 353.049 252C349.057 252 345.635 251.43 342.784 250.289C340.046 249.034 337.765 247.38 335.94 245.327C334.229 243.274 332.974 240.822 332.176 237.97C331.377 235.005 330.978 231.811 330.978 228.389C330.978 226.906 331.092 224.568 331.32 221.374C331.548 218.066 332.062 214.473 332.86 210.595C333.773 206.603 335.027 202.554 336.624 198.447C338.335 194.227 340.559 190.406 343.297 186.984C346.148 183.562 349.627 180.767 353.734 178.6C357.84 176.319 362.802 175.178 368.619 175.178C370.444 175.178 372.383 175.349 374.436 175.692C376.489 176.034 378.428 176.661 380.253 177.574C382.193 178.486 383.903 179.798 385.386 181.509C386.869 183.22 387.953 185.444 388.637 188.182H389.835L400.956 135.655ZM380.082 191.946C377.345 191.946 375.064 193.485 373.239 196.565C371.414 199.531 369.931 203.01 368.79 207.002C367.649 210.994 366.794 214.986 366.224 218.979C365.767 222.971 365.539 225.937 365.539 227.876C365.539 230.157 365.881 232.096 366.566 233.693C367.25 235.176 368.562 235.917 370.501 235.917C371.642 235.917 372.725 235.689 373.752 235.233C374.892 234.662 375.919 234.035 376.832 233.351C377.858 232.552 378.714 231.754 379.398 230.955C380.082 230.157 380.653 229.473 381.109 228.902L387.782 197.763C386.983 196.508 385.9 195.253 384.531 193.999C383.276 192.63 381.793 191.946 380.082 191.946Z" fill="#7065F0"/>
</svg>
